<svg width="24" height="14" viewBox="0 0 24 14" xmlns="http://www.w3.org/2000/svg">
<path fill-rule="evenodd" clip-rule="evenodd" d="M23.4493 0.947948C23.6163 0.40158 23.4494 0 22.6553 0H20.0297C19.362 0 19.0545 0.346868 18.8875 0.729474C18.8875 0.729474 17.5522 3.92608 15.6607 6.0025C15.0487 6.60358 14.7706 6.79461 14.4367 6.79461C14.2698 6.79461 14.0283 6.60358 14.0283 6.05721V0.947948C14.0283 0.292159 13.8345 0 13.2781 0H9.15214C8.73504 0 8.48411 0.304316 8.48411 0.59279C8.48411 1.2145 9.4297 1.35782 9.52722 3.10634V6.90421C9.52722 7.73684 9.37419 7.88789 9.04036 7.88789C8.15028 7.88789 5.98527 4.67674 4.70097 1.00266C4.44929 0.288474 4.19685 0 3.52582 0H0.90021C0.150035 0 0 0.346868 0 0.729474C0 1.41253 0.89027 4.80053 4.14472 9.28126C6.3146 12.341 9.37119 14 12.1528 14C13.822 14 14.0283 13.6316 14.0283 12.997V10.6842C14.0283 9.94737 14.1864 9.80037 14.7147 9.80037C15.1044 9.80037 15.7719 9.99158 17.3298 11.4669C19.11 13.2153 19.4033 14 20.4048 14H23.0304C23.7806 14 24.1556 13.6316 23.9392 12.9045C23.7025 12.1798 22.8526 11.1287 21.7247 9.88234C21.1127 9.17184 20.1947 8.40682 19.9168 8.02439C19.5272 7.53255 19.6385 7.31408 19.9168 6.87713C19.9168 6.87713 23.1155 2.45092 23.4493 0.948132V0.947948Z"/>
</svg>
