<svg width="12" height="24" viewBox="0 0 12 24" xmlns="http://www.w3.org/2000/svg">
<path d="M7.78896 23.9999V13.0523H11.3269L11.8566 8.78588H7.78896V6.06189C7.78896 4.82668 8.11925 3.98482 9.8248 3.98482L12 3.98377V0.167932C11.6236 0.116127 10.3325 0 8.83037 0C5.69421 0 3.54712 1.98818 3.54712 5.63957V8.786H0V13.0524H3.54701V24L7.78896 23.9999Z"/>
<path d="M7.78896 23.9999V13.0523H11.3269L11.8566 8.78588H7.78896V6.06189C7.78896 4.82668 8.11925 3.98482 9.8248 3.98482L12 3.98377V0.167932C11.6236 0.116127 10.3325 0 8.83037 0C5.69421 0 3.54712 1.98818 3.54712 5.63957V8.786H0V13.0524H3.54701V24L7.78896 23.9999Z"/>
<path d="M7.78896 23.9999V13.0523H11.3269L11.8566 8.78588H7.78896V6.06189C7.78896 4.82668 8.11925 3.98482 9.8248 3.98482L12 3.98377V0.167932C11.6236 0.116127 10.3325 0 8.83037 0C5.69421 0 3.54712 1.98818 3.54712 5.63957V8.786H0V13.0524H3.54701V24L7.78896 23.9999Z"/>
<path d="M7.78896 23.9999V13.0523H11.3269L11.8566 8.78588H7.78896V6.06189C7.78896 4.82668 8.11925 3.98482 9.8248 3.98482L12 3.98377V0.167932C11.6236 0.116127 10.3325 0 8.83037 0C5.69421 0 3.54712 1.98818 3.54712 5.63957V8.786H0V13.0524H3.54701V24L7.78896 23.9999Z"/>
</svg>
