<svg width="24" height="24" viewBox="0 0 24 24" fill="none" xmlns="http://www.w3.org/2000/svg">
<path fill-rule="evenodd" clip-rule="evenodd" d="M1.684 1.684C0 3.368 0 6.0792 0 11.5V12.5C0 17.92 0 20.632 1.684 22.316C3.368 24 6.0792 24 11.5 24H12.5C17.92 24 20.632 24 22.316 22.316C24 20.632 24 17.9208 24 12.5V11.5C24 6.08 24 3.368 22.316 1.684C20.632 0 17.9208 0 12.5 0H11.5C6.08 0 3.368 0 1.684 1.684ZM4.75065 7.5H6.50025C6.94745 7.5 7.11545 7.696 7.28345 8.1808C8.13945 10.6736 9.58265 12.8528 10.1754 12.8528C10.3986 12.8528 10.5002 12.7504 10.5002 12.1848V9.608C10.4602 8.87446 10.2039 8.55715 10.0141 8.32214C9.8969 8.17705 9.80505 8.06333 9.80505 7.9024C9.80505 7.7064 9.97225 7.5 10.2498 7.5H13.0002C13.3714 7.5 13.5002 7.6984 13.5002 8.1432V11.6104C13.5002 11.9808 13.661 12.1112 13.7722 12.1112C13.9946 12.1112 14.1802 11.9808 14.5882 11.5728C15.849 10.164 16.7386 7.9952 16.7386 7.9952C16.8498 7.7352 17.0554 7.5 17.5002 7.5H19.2498C19.7794 7.5 19.8914 7.7728 19.7794 8.1432C19.557 9.1632 17.425 12.1664 17.425 12.1664C17.2394 12.4632 17.165 12.6112 17.425 12.9448C17.5168 13.0733 17.7126 13.2652 17.9364 13.4846C18.1653 13.7089 18.4235 13.9621 18.6298 14.2056C19.3818 15.0512 19.9482 15.7648 20.1058 16.256C20.2506 16.7496 20.0002 17 19.5002 17H17.7498C17.2812 17 17.0455 16.7376 16.5356 16.17C16.3195 15.9295 16.0542 15.6342 15.701 15.2808C14.6618 14.28 14.2178 14.1504 13.9578 14.1504C13.6058 14.1504 13.5002 14.2504 13.5002 14.7504V16.32C13.5002 16.7496 13.3626 17 12.2498 17C10.3962 17 8.35865 15.8744 6.91305 13.7976C4.74345 10.7576 4.15065 8.4584 4.15065 7.9952C4.15065 7.7352 4.25065 7.5 4.75065 7.5Z" fill="#5181B8"/>
</svg>
